<mxfile host="app.diagrams.net" modified="2023-09-23T20:00:00.666Z" agent="Mozilla/5.0 (Windows NT 10.0; Win64; x64) AppleWebKit/537.36 (KHTML, like Gecko) Chrome/116.0.0.0 Safari/537.36" etag="gjzWtwJ1HnVEz34DEBUK" version="21.8.1" type="github">
  <diagram name="Página-1" id="ruf31_DhoG0HgwjBM1ji">
    <mxGraphModel dx="880" dy="446" grid="0" gridSize="10" guides="1" tooltips="1" connect="1" arrows="1" fold="1" page="0" pageScale="1" pageWidth="1169" pageHeight="827" background="#ffffff" math="0" shadow="0">
      <root>
        <mxCell id="0" />
        <mxCell id="1" parent="0" />
        <mxCell id="cLKwtPa8bWTlzpbd1HSx-1" value="Sala" style="swimlane;fontStyle=0;childLayout=stackLayout;horizontal=1;startSize=26;fillColor=none;horizontalStack=0;resizeParent=1;resizeParentMax=0;resizeLast=0;collapsible=1;marginBottom=0;hachureGap=4;fontFamily=Verdana;fontSize=20;swimlaneLine=1;rounded=0;shadow=0;glass=0;labelBackgroundColor=none;html=1;verticalAlign=middle;" parent="1" vertex="1">
          <mxGeometry x="331" y="354" width="310" height="60" as="geometry" />
        </mxCell>
        <mxCell id="cLKwtPa8bWTlzpbd1HSx-3" value="sessões [10]" style="text;strokeColor=none;fillColor=none;align=center;verticalAlign=middle;spacingLeft=4;spacingRight=4;overflow=hidden;rotatable=0;points=[[0,0.5],[1,0.5]];portConstraint=eastwest;whiteSpace=wrap;fontSize=20;fontFamily=Verdana;labelBackgroundColor=none;rounded=0;html=1;swimlaneLine=1;" parent="cLKwtPa8bWTlzpbd1HSx-1" vertex="1">
          <mxGeometry y="26" width="310" height="34" as="geometry" />
        </mxCell>
        <mxCell id="pizBe3XyKbjgz-yJmAaW-14" value="" style="edgeStyle=orthogonalEdgeStyle;orthogonalLoop=1;jettySize=auto;exitX=0.5;exitY=0;exitDx=0;exitDy=0;curved=1;fontFamily=Verdana;html=1;verticalAlign=middle;swimlaneLine=1;" parent="1" source="cLKwtPa8bWTlzpbd1HSx-8" target="cLKwtPa8bWTlzpbd1HSx-1" edge="1">
          <mxGeometry relative="1" as="geometry" />
        </mxCell>
        <mxCell id="cLKwtPa8bWTlzpbd1HSx-8" value="SalaGrande" style="swimlane;fontStyle=0;childLayout=stackLayout;horizontal=1;startSize=30;horizontalStack=0;resizeParent=1;resizeParentMax=0;resizeLast=0;collapsible=1;marginBottom=0;whiteSpace=wrap;hachureGap=4;fontFamily=Verdana;fontSize=20;labelBackgroundColor=none;rounded=0;html=1;verticalAlign=middle;swimlaneLine=1;" parent="1" vertex="1">
          <mxGeometry x="230" y="530" width="140" height="60" as="geometry">
            <mxRectangle x="270" y="430" width="140" height="40" as="alternateBounds" />
          </mxGeometry>
        </mxCell>
        <mxCell id="cLKwtPa8bWTlzpbd1HSx-9" value="sessões[10]" style="text;strokeColor=none;fillColor=none;align=center;verticalAlign=middle;spacingLeft=4;spacingRight=4;overflow=hidden;points=[[0,0.5],[1,0.5]];portConstraint=eastwest;rotatable=0;whiteSpace=wrap;fontSize=20;fontFamily=Verdana;labelBackgroundColor=none;treeMoving=0;rounded=0;html=1;swimlaneLine=1;" parent="cLKwtPa8bWTlzpbd1HSx-8" vertex="1">
          <mxGeometry y="30" width="140" height="30" as="geometry" />
        </mxCell>
        <mxCell id="pizBe3XyKbjgz-yJmAaW-3" value="Sessão" style="swimlane;fontStyle=0;childLayout=stackLayout;horizontal=1;startSize=26;fillColor=none;horizontalStack=0;resizeParent=1;resizeParentMax=0;resizeLast=0;collapsible=1;marginBottom=0;hachureGap=4;fontFamily=Verdana;fontSize=20;swimlaneLine=1;rounded=0;shadow=0;glass=0;labelBackgroundColor=none;html=1;verticalAlign=middle;" parent="1" vertex="1">
          <mxGeometry x="770" y="315" width="279" height="178" as="geometry">
            <mxRectangle x="190" y="270" width="150" height="70" as="alternateBounds" />
          </mxGeometry>
        </mxCell>
        <mxCell id="pizBe3XyKbjgz-yJmAaW-4" value="lugares" style="text;strokeColor=none;fillColor=none;align=center;verticalAlign=middle;spacingLeft=4;spacingRight=4;overflow=hidden;rotatable=0;points=[[0,0.5],[1,0.5]];portConstraint=eastwest;whiteSpace=wrap;fontSize=20;fontFamily=Verdana;labelBackgroundColor=none;rounded=0;html=1;swimlaneLine=1;" parent="pizBe3XyKbjgz-yJmAaW-3" vertex="1">
          <mxGeometry y="26" width="279" height="26" as="geometry" />
        </mxCell>
        <mxCell id="pizBe3XyKbjgz-yJmAaW-9" value="ing_vendidos" style="text;strokeColor=none;fillColor=none;align=center;verticalAlign=middle;spacingLeft=4;spacingRight=4;overflow=hidden;rotatable=0;points=[[0,0.5],[1,0.5]];portConstraint=eastwest;whiteSpace=wrap;fontSize=20;fontFamily=Verdana;labelBackgroundColor=none;rounded=0;html=1;swimlaneLine=1;" parent="pizBe3XyKbjgz-yJmAaW-3" vertex="1">
          <mxGeometry y="52" width="279" height="30" as="geometry" />
        </mxCell>
        <mxCell id="pizBe3XyKbjgz-yJmAaW-37" value="compraDeBilhetes()" style="text;strokeColor=none;fillColor=none;align=center;verticalAlign=middle;spacingLeft=4;spacingRight=4;overflow=hidden;rotatable=0;points=[[0,0.5],[1,0.5]];portConstraint=eastwest;whiteSpace=wrap;fontSize=20;fontFamily=Verdana;labelBackgroundColor=none;rounded=0;html=1;swimlaneLine=1;" parent="pizBe3XyKbjgz-yJmAaW-3" vertex="1">
          <mxGeometry y="82" width="279" height="48" as="geometry" />
        </mxCell>
        <mxCell id="pizBe3XyKbjgz-yJmAaW-5" value="FaturamentoDaSala()" style="text;strokeColor=none;fillColor=none;align=center;verticalAlign=middle;spacingLeft=4;spacingRight=4;overflow=hidden;rotatable=0;points=[[0,0.5],[1,0.5]];portConstraint=eastwest;whiteSpace=wrap;fontSize=20;fontFamily=Verdana;labelBackgroundColor=none;rounded=0;html=1;swimlaneLine=1;" parent="pizBe3XyKbjgz-yJmAaW-3" vertex="1">
          <mxGeometry y="130" width="279" height="48" as="geometry" />
        </mxCell>
        <mxCell id="pizBe3XyKbjgz-yJmAaW-15" value="" style="edgeStyle=orthogonalEdgeStyle;orthogonalLoop=1;jettySize=auto;exitX=0.5;exitY=0;exitDx=0;exitDy=0;curved=1;fontFamily=Verdana;html=1;verticalAlign=middle;swimlaneLine=1;" parent="1" source="pizBe3XyKbjgz-yJmAaW-10" target="cLKwtPa8bWTlzpbd1HSx-1" edge="1">
          <mxGeometry relative="1" as="geometry" />
        </mxCell>
        <mxCell id="pizBe3XyKbjgz-yJmAaW-10" value="SalaMedia" style="swimlane;fontStyle=0;childLayout=stackLayout;horizontal=1;startSize=30;horizontalStack=0;resizeParent=1;resizeParentMax=0;resizeLast=0;collapsible=1;marginBottom=0;whiteSpace=wrap;hachureGap=4;fontFamily=Verdana;fontSize=20;labelBackgroundColor=none;rounded=0;html=1;verticalAlign=middle;swimlaneLine=1;" parent="1" vertex="1">
          <mxGeometry x="430" y="530" width="140" height="60" as="geometry">
            <mxRectangle x="270" y="430" width="140" height="40" as="alternateBounds" />
          </mxGeometry>
        </mxCell>
        <mxCell id="pizBe3XyKbjgz-yJmAaW-11" value="sessões[10]" style="text;strokeColor=none;fillColor=none;align=center;verticalAlign=middle;spacingLeft=4;spacingRight=4;overflow=hidden;points=[[0,0.5],[1,0.5]];portConstraint=eastwest;rotatable=0;whiteSpace=wrap;fontSize=20;fontFamily=Verdana;labelBackgroundColor=none;treeMoving=0;rounded=0;html=1;swimlaneLine=1;" parent="pizBe3XyKbjgz-yJmAaW-10" vertex="1">
          <mxGeometry y="30" width="140" height="30" as="geometry" />
        </mxCell>
        <mxCell id="pizBe3XyKbjgz-yJmAaW-17" value="" style="edgeStyle=orthogonalEdgeStyle;orthogonalLoop=1;jettySize=auto;exitX=0.5;exitY=0;exitDx=0;exitDy=0;curved=1;fontFamily=Verdana;html=1;verticalAlign=middle;swimlaneLine=1;" parent="1" source="pizBe3XyKbjgz-yJmAaW-12" target="cLKwtPa8bWTlzpbd1HSx-1" edge="1">
          <mxGeometry relative="1" as="geometry" />
        </mxCell>
        <mxCell id="pizBe3XyKbjgz-yJmAaW-12" value="SalaPequena" style="swimlane;fontStyle=0;childLayout=stackLayout;horizontal=1;startSize=30;horizontalStack=0;resizeParent=1;resizeParentMax=0;resizeLast=0;collapsible=1;marginBottom=0;whiteSpace=wrap;hachureGap=4;fontFamily=Verdana;fontSize=20;labelBackgroundColor=none;rounded=0;html=1;verticalAlign=middle;swimlaneLine=1;" parent="1" vertex="1">
          <mxGeometry x="620" y="530" width="140" height="60" as="geometry">
            <mxRectangle x="270" y="430" width="140" height="40" as="alternateBounds" />
          </mxGeometry>
        </mxCell>
        <mxCell id="pizBe3XyKbjgz-yJmAaW-13" value="sessões[10]" style="text;strokeColor=none;fillColor=none;align=center;verticalAlign=middle;spacingLeft=4;spacingRight=4;overflow=hidden;points=[[0,0.5],[1,0.5]];portConstraint=eastwest;rotatable=0;whiteSpace=wrap;fontSize=20;fontFamily=Verdana;labelBackgroundColor=none;treeMoving=0;rounded=0;html=1;swimlaneLine=1;" parent="pizBe3XyKbjgz-yJmAaW-12" vertex="1">
          <mxGeometry y="30" width="140" height="30" as="geometry" />
        </mxCell>
        <mxCell id="pizBe3XyKbjgz-yJmAaW-22" value="" style="endArrow=none;fontFamily=Verdana;html=1;verticalAlign=middle;swimlaneLine=1;" parent="1" source="cLKwtPa8bWTlzpbd1HSx-1" target="pizBe3XyKbjgz-yJmAaW-3" edge="1">
          <mxGeometry width="50" height="50" relative="1" as="geometry">
            <mxPoint x="630" y="400" as="sourcePoint" />
            <mxPoint x="680" y="350" as="targetPoint" />
          </mxGeometry>
        </mxCell>
        <mxCell id="pizBe3XyKbjgz-yJmAaW-23" value="Cinema" style="swimlane;fontStyle=0;childLayout=stackLayout;horizontal=1;startSize=30;horizontalStack=0;resizeParent=1;resizeParentMax=0;resizeLast=0;collapsible=1;marginBottom=0;whiteSpace=wrap;fontFamily=Verdana;html=1;verticalAlign=middle;swimlaneLine=1;" parent="1" vertex="1">
          <mxGeometry x="395" y="110" width="182" height="162" as="geometry" />
        </mxCell>
        <mxCell id="pizBe3XyKbjgz-yJmAaW-24" value="SalaGrande[3]" style="text;strokeColor=none;fillColor=none;align=left;verticalAlign=middle;spacingLeft=4;spacingRight=4;overflow=hidden;points=[[0,0.5],[1,0.5]];portConstraint=eastwest;rotatable=0;whiteSpace=wrap;fontFamily=Verdana;html=1;swimlaneLine=1;" parent="pizBe3XyKbjgz-yJmAaW-23" vertex="1">
          <mxGeometry y="30" width="182" height="30" as="geometry" />
        </mxCell>
        <mxCell id="pizBe3XyKbjgz-yJmAaW-25" value="SalaMedia[4]" style="text;strokeColor=none;fillColor=none;align=left;verticalAlign=middle;spacingLeft=4;spacingRight=4;overflow=hidden;points=[[0,0.5],[1,0.5]];portConstraint=eastwest;rotatable=0;whiteSpace=wrap;fontFamily=Verdana;html=1;swimlaneLine=1;" parent="pizBe3XyKbjgz-yJmAaW-23" vertex="1">
          <mxGeometry y="60" width="182" height="30" as="geometry" />
        </mxCell>
        <mxCell id="pizBe3XyKbjgz-yJmAaW-36" value="SalaPequena[5]" style="text;strokeColor=none;fillColor=none;align=left;verticalAlign=middle;spacingLeft=4;spacingRight=4;overflow=hidden;points=[[0,0.5],[1,0.5]];portConstraint=eastwest;rotatable=0;whiteSpace=wrap;fontFamily=Verdana;html=1;swimlaneLine=1;" parent="pizBe3XyKbjgz-yJmAaW-23" vertex="1">
          <mxGeometry y="90" width="182" height="30" as="geometry" />
        </mxCell>
        <mxCell id="pizBe3XyKbjgz-yJmAaW-26" value="FaturamentoDoCinema()" style="text;strokeColor=none;fillColor=none;align=left;verticalAlign=middle;spacingLeft=4;spacingRight=4;overflow=hidden;points=[[0,0.5],[1,0.5]];portConstraint=eastwest;rotatable=0;whiteSpace=wrap;fontFamily=Verdana;html=1;swimlaneLine=1;" parent="pizBe3XyKbjgz-yJmAaW-23" vertex="1">
          <mxGeometry y="120" width="182" height="42" as="geometry" />
        </mxCell>
        <mxCell id="pizBe3XyKbjgz-yJmAaW-27" value="" style="endArrow=none;exitX=0.5;exitY=0;exitDx=0;exitDy=0;fontFamily=Verdana;html=1;verticalAlign=middle;swimlaneLine=1;" parent="1" source="cLKwtPa8bWTlzpbd1HSx-1" target="pizBe3XyKbjgz-yJmAaW-23" edge="1">
          <mxGeometry width="50" height="50" relative="1" as="geometry">
            <mxPoint x="570" y="340" as="sourcePoint" />
            <mxPoint x="480" y="240" as="targetPoint" />
          </mxGeometry>
        </mxCell>
        <mxCell id="pizBe3XyKbjgz-yJmAaW-30" value="- 100 lugares&lt;br&gt;- ingresso:&lt;br&gt;&amp;nbsp;9 reais" style="text;html=1;align=center;verticalAlign=middle;resizable=0;points=[];autosize=1;strokeColor=none;fillColor=none;" parent="1" vertex="1">
          <mxGeometry x="646.5" y="599" width="88" height="55" as="geometry" />
        </mxCell>
        <mxCell id="pizBe3XyKbjgz-yJmAaW-31" value="- 300 lugares&lt;br&gt;- ingresso: &lt;br&gt;9 reais até as 18&lt;br&gt;12 reais a partir das 18" style="text;html=1;align=center;verticalAlign=middle;resizable=0;points=[];autosize=1;strokeColor=none;fillColor=none;" parent="1" vertex="1">
          <mxGeometry x="429.5" y="601" width="141" height="70" as="geometry" />
        </mxCell>
        <mxCell id="pizBe3XyKbjgz-yJmAaW-32" value="- 500 lugares&lt;br&gt;- ingresso: &lt;br&gt;9 reais" style="text;html=1;align=center;verticalAlign=middle;resizable=0;points=[];autosize=1;strokeColor=none;fillColor=none;" parent="1" vertex="1">
          <mxGeometry x="253" y="616" width="88" height="55" as="geometry" />
        </mxCell>
        <mxCell id="pizBe3XyKbjgz-yJmAaW-35" value="" style="edgeStyle=orthogonalEdgeStyle;orthogonalLoop=1;jettySize=auto;html=1;" parent="1" source="pizBe3XyKbjgz-yJmAaW-32" target="pizBe3XyKbjgz-yJmAaW-33" edge="1">
          <mxGeometry relative="1" as="geometry">
            <mxPoint x="297" y="747.5555826822917" as="targetPoint" />
            <mxPoint x="297" y="671" as="sourcePoint" />
          </mxGeometry>
        </mxCell>
        <mxCell id="pizBe3XyKbjgz-yJmAaW-33" value="so se pode vender&amp;nbsp;&lt;br&gt;até 90% da sala" style="text;html=1;align=center;verticalAlign=middle;resizable=0;points=[];autosize=1;strokeColor=none;fillColor=none;" parent="1" vertex="1">
          <mxGeometry x="237" y="797" width="120" height="41" as="geometry" />
        </mxCell>
      </root>
    </mxGraphModel>
  </diagram>
</mxfile>
